<svg xmlns="http://www.w3.org/2000/svg" viewBox="14 807 1566 200"><g><g><path fill="#ffffff" d="M129.5,809.6L15.7,1004.7h28.5L68.5,960H223l24.4,44.7h28.5L162,809.6H129.5z M80.7,939.6l65-113.8l65,113.8   H80.7z"></path><path fill="#ffffff" d="M562.6,899c11-0.8,19.2-4.9,24.5-12.4s8-17.1,8-28.6c0-12.8-2.3-22.7-6.8-29.7s-11.5-11.9-21-14.6   c-9.4-2.8-21.5-4.1-36.3-4.1H375.7v195.1h144.7c16,0,29.4-0.8,40.1-2.4c10.7-1.6,19.2-4.5,25.5-8.6s10.7-9.9,13.4-17.3   c2.7-7.5,4-17,4-28.6c0-13.4-3.2-24.5-9.5-33.3C587.4,905.6,577,900.4,562.6,899z M400.1,829.9h131.1c10.1,0,18,0.6,23.8,1.7   c5.8,1.1,9.8,3.6,12.3,7.6c2.4,4,3.6,10.2,3.6,18.8c0,10.9-2,18.7-6.1,23.2c-4.1,4.6-10.3,7.3-18.7,8.3   c-8.4,0.9-19.1,1.4-32.3,1.4H400.1V829.9z M576.2,968.3c-1.8,5-4.8,8.6-9.2,10.9c-4.4,2.3-10.3,3.7-17.9,4.3   c-7.6,0.6-17.2,0.9-28.8,0.9H400.1v-73.2h113.7c9.1,0,17.5,0.3,25.4,0.8s14.8,1.9,20.8,4.1c6,2.2,10.6,5.8,14,10.8   c3.3,5,5,12,5,21C578.9,956.5,578,963.3,576.2,968.3z"></path><path fill="#ffffff" d="M898.2,899c11-0.8,19.2-4.9,24.5-12.4s8-17.1,8-28.6c0-12.8-2.3-22.7-6.8-29.7s-11.5-11.9-21-14.6   c-9.4-2.8-21.5-4.1-36.3-4.1H711.3v195.1H856c16,0,29.4-0.8,40.1-2.4c10.7-1.6,19.2-4.5,25.5-8.6s10.7-9.9,13.4-17.3   c2.7-7.5,4-17,4-28.6c0-13.4-3.2-24.5-9.5-33.3C923,905.6,912.6,900.4,898.2,899z M735.7,829.9h131.1c10.1,0,18,0.6,23.8,1.7   c5.8,1.1,9.8,3.6,12.3,7.6c2.4,4,3.6,10.2,3.6,18.8c0,10.9-2,18.7-6.1,23.2c-4.1,4.6-10.3,7.3-18.7,8.3   c-8.4,0.9-19.1,1.4-32.3,1.4H735.7V829.9z M911.8,968.3c-1.8,5-4.8,8.6-9.2,10.9c-4.4,2.3-10.3,3.7-17.9,4.3   c-7.6,0.6-17.2,0.9-28.8,0.9H735.7v-73.2h113.7c9.1,0,17.5,0.3,25.4,0.8s14.8,1.9,20.8,4.1c6,2.2,10.6,5.8,14,10.8   c3.3,5,5,12,5,21C914.5,956.5,913.6,963.3,911.8,968.3z"></path><polygon fill="#ffffff" points="1071.3,915.3 1231.5,915.3 1231.5,894.9 1071.3,894.9 1071.3,829.9 1238.4,829.9 1238.4,809.6    1046.9,809.6 1046.9,1004.7 1242,1004.7 1242,984.3 1071.3,984.3   "></polygon><polygon fill="#ffffff" points="1545.1,809.6 1455.7,905.1 1366.3,809.6 1333.8,809.6 1443.5,923.4 1443.5,1004.7 1467.9,1004.7    1467.9,923.4 1577.6,809.6   "></polygon></g></g></svg>